# xmcd
#
# Track frame offsets:
#	150
#	21455
#	43092
#	65200
#	81682
#	96872
#	119362
#	134565
#	153835
#	165172
#	181022
#	197607
#	219455
#	237365
#	258010
#	272907
#	286347
#	301092
#
# Disc length: 4296 seconds
#
# Revision: 1
# Processed by: cddbd v1.5.2PL0 Copyright (c) Steve Scherf et al.
# Submitted via: audiograbber 1.83.01
#
DISCID=0110c612
DTITLE=Various Artist - Goin' South Platinum Edition
DYEAR=2007
DGENRE=Southern Rock
TTITLE0=Lynyrd Skynyrd - Sweet Home Alabama
TTITLE1=Allman Brothers Band - Ramblin' Man
TTITLE2=Marshall Tucker Band - Heard It In A Love Song
TTITLE3=Stevie Ray Vaughan and Double Trouble - Pride and Joy
TTITLE4=The Fabulous Thunderbirds - Tuff Enuff
TTITLE5=Molly Hatchet - Flirtin' With Disaster
TTITLE6=Georgia Satellites - Keep Your Hands to Yourself
TTITLE7=38 Special - Wild-Eyed Southern Boys
TTITLE8=Mountain - Mississippi Queen
TTITLE9=The Band - The Night They Drove Old Dixie Down
TTITLE10=Joe Walsh - Rocky Mountain Way
TTITLE11=George Thorogood and The Destroyers - Bad To The Bone
TTITLE12=The Charlie Daniels Band - The South's Gonna Do It Again
TTITLE13=Elvin Bishop - Fooled Around And Fell In Love
TTITLE14=Marshall Tucker Band - Can't You See
TTITLE15=Allman Brothers Band - Midnight Rider
TTITLE16=Pure Prarie League - Amie
TTITLE17=Lynyrd Skynyrd - Free Bird
EXTD=
EXTT0=
EXTT1=
EXTT2=
EXTT3=
EXTT4=
EXTT5=
EXTT6=
EXTT7=
EXTT8=
EXTT9=
EXTT10=
EXTT11=
EXTT12=
EXTT13=
EXTT14=
EXTT15=
EXTT16=
EXTT17=
PLAYORDER=
